<?xml version="1.0" encoding="iso-8859-1"?>
<!-- Generator: Adobe Illustrator 19.0.0, SVG Export Plug-In . SVG Version: 6.00 Build 0)  -->
<svg version="1.1" id="Capa_1" xmlns="http://www.w3.org/2000/svg" xmlns:xlink="http://www.w3.org/1999/xlink" x="0px" y="0px"
	 viewBox="0 0 512 512" style="enable-background:new 0 0 512 512;" xml:space="preserve">
<path style="fill:#FF8D7E;" d="M472.928,293.043h-15.223v-71.041c0-12.591-10.243-22.834-22.835-22.834h-45.669v-15.223h45.669
	c20.985,0,38.057,17.072,38.057,38.057V293.043z"/>
<path style="fill:#FFB4A9;" d="M343.532,183.945c-46.167,0-83.726-37.559-83.726-83.726c0-4.204-3.408-7.611-7.611-7.611
	s-7.611,3.408-7.611,7.611c0,54.561,44.388,98.949,98.949,98.949h45.669v-15.223H343.532z"/>
<path style="fill:#FFCB63;" d="M414.573,171.259h-30.446l20.297,121.784h30.446V191.556
	C434.87,180.346,425.783,171.259,414.573,171.259z"/>
<path style="fill:#FFE2A8;" d="M384.127,171.259H363.83c-11.21,0-20.297,9.087-20.297,20.297v101.487h60.892V191.556
	C404.424,180.346,395.337,171.259,384.127,171.259z"/>
<circle style="fill:#A45E43;" cx="389.201" cy="26.64" r="22.834"/>
<path style="fill:#FF8D7E;" d="M389.201,49.475v91.338c25.222,0,45.669-20.447,45.669-45.669S414.424,49.475,389.201,49.475z"/>
<path style="fill:#FFB4A9;" d="M404.424,95.144c0-25.222-6.816-45.669-15.223-45.669c-25.222,0-45.669,20.447-45.669,45.669
	s20.447,45.669,45.669,45.669C397.608,140.813,404.424,120.366,404.424,95.144z"/>
<polygon style="fill:#60312C;" points="427.766,262.597 459.227,508.194 489.673,508.194 489.673,293.043 "/>
<path style="fill:#353535;" d="M389.201,194.093c-4.204,0-7.612,3.408-7.612,7.611v76.115h15.223v-76.115
	C396.813,197.501,393.405,194.093,389.201,194.093z"/>
<g>
	<polygon style="fill:#85453D;" points="289.237,293.043 289.237,462.525 334.906,508.194 458.72,508.194 458.72,262.597 	"/>
	<polygon style="fill:#85453D;" points="458.72,247.374 438.422,270.208 458.72,293.043 489.166,293.043 489.166,247.374 	"/>
</g>
<rect x="289.237" y="247.374" style="fill:#A45E43;" width="169.483" height="45.669"/>
<path style="fill:#85453D;" d="M504.389,254.985H274.014c-4.204,0-7.612-3.408-7.612-7.611c0-4.204,3.408-7.611,7.612-7.611h230.375
	c4.204,0,7.611,3.408,7.611,7.611C512,251.577,508.592,254.985,504.389,254.985z"/>
<path style="fill:#FFA754;" d="M314.609,462.525h-30.446l20.297,45.669h30.446v-25.372
	C334.906,471.612,325.819,462.525,314.609,462.525z"/>
<path style="fill:#FFCB63;" d="M284.163,462.525h-20.297c-11.21,0-20.297,9.087-20.297,20.297v25.372h60.892v-25.372
	C304.46,471.612,295.373,462.525,284.163,462.525z"/>
<path style="fill:#FFB4A9;" d="M289.237,340.741v91.338c25.222,0,45.669-20.447,45.669-45.669S314.459,340.741,289.237,340.741z"/>
<path style="fill:#FFD9D4;" d="M304.46,386.41c0-25.222-6.816-45.669-15.223-45.669c-25.222,0-45.669,20.447-45.669,45.669
	s20.447,45.669,45.669,45.669C297.644,432.079,304.46,411.633,304.46,386.41z"/>
<path style="fill:#2DADE3;" d="M192.825,462.525h-30.446l20.297,45.669h30.446v-25.372
	C213.122,471.612,204.035,462.525,192.825,462.525z"/>
<path style="fill:#49C9FF;" d="M162.379,462.525h-20.297c-11.21,0-20.297,9.087-20.297,20.297v25.372h60.892v-25.372
	C182.676,471.612,173.589,462.525,162.379,462.525z"/>
<path style="fill:#FF8D7E;" d="M167.453,340.741v91.338c25.222,0,45.669-20.447,45.669-45.669S192.675,340.741,167.453,340.741z"/>
<path style="fill:#FFB4A9;" d="M182.676,386.41c0-25.222-6.816-45.669-15.223-45.669c-25.222,0-45.669,20.447-45.669,45.669
	s20.447,45.669,45.669,45.669C175.86,432.079,182.676,411.633,182.676,386.41z"/>
<path style="fill:#CF301B;" d="M71.041,462.525H40.595l20.297,45.669h30.446v-25.372C91.338,471.612,82.251,462.525,71.041,462.525z
	"/>
<path style="fill:#FF4128;" d="M40.595,462.525H20.297C9.087,462.525,0,471.612,0,482.823v25.372h60.892v-25.372
	C60.892,471.612,51.805,462.525,40.595,462.525z"/>
<path style="fill:#C27749;" d="M45.669,340.741v91.338c25.222,0,45.669-20.447,45.669-45.669S70.891,340.741,45.669,340.741z"/>
<path style="fill:#E18F4E;" d="M60.892,386.41c0-25.222-6.816-45.669-15.223-45.669C20.447,340.741,0,361.188,0,386.41
	s20.447,45.669,45.669,45.669C54.076,432.079,60.892,411.633,60.892,386.41z"/>
<g>
</g>
<g>
</g>
<g>
</g>
<g>
</g>
<g>
</g>
<g>
</g>
<g>
</g>
<g>
</g>
<g>
</g>
<g>
</g>
<g>
</g>
<g>
</g>
<g>
</g>
<g>
</g>
<g>
</g>
</svg>
